<svg xmlns="http://www.w3.org/2000/svg" viewBox="0 0 120 132">
<path d="M54 20 C48 6 41 3 34 5" stroke="#2B2118" stroke-width="4.2" stroke-linecap="round" fill="none"></path>
<path d="M66 20 C72 6 79 3 86 5" stroke="#2B2118" stroke-width="4.2" stroke-linecap="round" fill="none"></path>
<circle cx="33" cy="5" r="4.4" fill="#F2B441" stroke="#2B2118" stroke-width="3"></circle>
<circle cx="87" cy="5" r="4.4" fill="#F2B441" stroke="#2B2118" stroke-width="3"></circle>
<ellipse cx="36" cy="54" rx="19" ry="26" fill="#FCE4B0" stroke="#2B2118" stroke-width="4.2" transform="rotate(-24 36 54)"></ellipse>
<ellipse cx="84" cy="54" rx="19" ry="26" fill="#FCE4B0" stroke="#2B2118" stroke-width="4.2" transform="rotate(24 84 54)"></ellipse>
<rect x="40" y="44" width="40" height="72" rx="20" fill="#F2B441" stroke="#2B2118" stroke-width="4.2"></rect>
<defs><clipPath id="bclip"><rect x="40" y="44" width="40" height="72" rx="20"></rect></clipPath></defs>
<g clip-path="url(#bclip)"><rect x="36" y="66" width="48" height="12" fill="#2B2118"></rect><rect x="36" y="90" width="48" height="12" fill="#2B2118"></rect></g>
<circle cx="60" cy="31" r="17" fill="#2B2118"></circle>
<circle cx="53" cy="29" r="3.4" fill="#FBF7EF"></circle>
<circle cx="67" cy="29" r="3.4" fill="#FBF7EF"></circle>
</svg>